# This file uses centimeters as units for non-parametric coordinates.

mtllib Fixed CrystalCrusader.mtl
g default
v 0.000000 0.000000 10.160000
v 7.620000 -0.000000 0.000000
v 0.000000 0.000000 -20.320000
v -7.620000 0.000000 0.000000
v -2.540000 5.080000 0.000000
v 2.540000 5.080000 0.000000
v 2.540000 -5.080000 0.000000
v -2.540000 -5.080000 0.000000
vt 0.033891 0.368400
vt 0.172264 0.368400
vt 0.241450 0.894799
vt 0.241450 0.105201
vt 0.449009 0.368400
vt 0.310636 0.368400
vt 0.517162 0.368400
vt 0.655535 0.368400
vt 0.724721 0.894799
vt 0.724721 0.105201
vt 0.932280 0.368400
vt 0.793908 0.368400
vn -0.706862 0.706862 -0.026314
vn -0.707082 0.707082 -0.008425
vn -0.683486 0.683486 -0.256307
vn 0.624695 0.624695 0.468521
vn 0.706862 0.706862 -0.026314
vn 0.707082 0.707082 -0.008425
vn 0.000000 0.999932 -0.011680
vn 0.000000 0.999932 -0.011680
vn 0.000000 0.970143 -0.242536
vn -0.624695 0.624695 0.468521
vn 0.000000 0.894427 0.447214
vn 0.683486 0.683486 -0.256307
vn 0.706862 -0.706862 -0.026314
vn 0.707082 -0.707082 -0.008425
vn 0.683486 -0.683486 -0.256307
vn -0.624695 -0.624695 0.468521
vn -0.706862 -0.706862 -0.026314
vn -0.707082 -0.707082 -0.008425
vn 0.000000 -0.999932 -0.011680
vn 0.000000 -0.999932 -0.011680
vn 0.000000 -0.970143 -0.242536
vn 0.624695 -0.624695 0.468521
vn 0.000000 -0.894427 0.447214
vn -0.683486 -0.683486 -0.256307
s 1
g polySurface3
usemtl blinn1SG
f 4/1/1 5/2/2 3/3/3
s 2
f 1/4/4 2/5/5 6/6/6
s 3
f 5/2/7 6/6/8 3/3/9
s 1
f 1/4/10 5/2/2 4/1/1
s 3
f 1/4/11 6/6/8 5/2/7
s 2
f 6/6/6 2/5/5 3/3/12
s 4
f 2/7/13 7/8/14 3/9/15
s 5
f 1/10/16 4/11/17 8/12/18
s 6
f 7/8/19 8/12/20 3/9/21
s 4
f 1/10/22 7/8/14 2/7/13
s 6
f 1/10/23 8/12/20 7/8/19
s 5
f 8/12/18 4/11/17 3/9/24
