# This file uses centimeters as units for non-parametric coordinates.

mtllib SimpleLaser.mtl
g default
v 4.891743 2.951808 -1.909902
v 4.852188 3.029437 -1.909902
v 4.790582 3.091044 -1.909903
v 4.712953 3.130597 -1.909903
v 4.626900 3.144227 -1.909903
v 4.540848 3.130597 -1.909903
v 4.463219 3.091043 -1.909903
v 4.401612 3.029437 -1.909902
v 4.362059 2.951808 -1.909902
v 4.348429 2.865755 -1.909902
v 4.362059 2.779703 -1.909903
v 4.401612 2.702074 -1.909903
v 4.463219 2.640467 -1.909903
v 4.540848 2.600914 -1.909903
v 4.626900 2.587284 -1.909902
v 4.712953 2.600914 -1.909903
v 4.790582 2.640467 -1.909903
v 4.852188 2.702074 -1.909903
v 4.891743 2.779703 -1.909902
v 4.905372 2.865755 -1.909902
v 4.891743 2.951808 1.909902
v 4.852188 3.029437 1.909902
v 4.790582 3.091044 1.909902
v 4.712953 3.130598 1.909902
v 4.626900 3.144227 1.909902
v 4.540848 3.130598 1.909902
v 4.463219 3.091044 1.909902
v 4.401612 3.029437 1.909902
v 4.362059 2.951808 1.909902
v 4.348429 2.865756 1.909902
v 4.362059 2.779703 1.909902
v 4.401612 2.702074 1.909902
v 4.463219 2.640468 1.909902
v 4.540848 2.600914 1.909902
v 4.626900 2.587284 1.909902
v 4.712953 2.600914 1.909902
v 4.790582 2.640468 1.909902
v 4.852188 2.702074 1.909902
v 4.891743 2.779703 1.909902
v 4.905372 2.865756 1.909902
v 4.626900 2.865755 -2.633284
v 4.626900 2.865756 2.633284
v 4.745545 2.500603 1.316643
v 4.626900 2.481812 1.316643
v 4.508255 2.500603 1.316643
v 4.401224 2.555139 1.316643
v 4.316284 2.640079 1.316643
v 4.261748 2.747110 1.316642
v 4.242957 2.865755 1.316643
v 4.261748 2.984400 1.316643
v 4.316284 3.091431 1.316643
v 4.401224 3.176372 1.316643
v 4.508255 3.230907 1.316643
v 4.626900 3.249698 1.316643
v 4.745546 3.230907 1.316642
v 4.852577 3.176372 1.316642
v 4.937517 3.091431 1.316643
v 4.992052 2.984400 1.316643
v 5.010843 2.865755 1.316643
v 4.992052 2.747110 1.316643
v 4.937517 2.640079 1.316643
v 4.852577 2.555139 1.316643
v 4.762714 2.447762 0.000000
v 4.626900 2.426252 0.000000
v 4.491086 2.447762 0.000000
v 4.368567 2.510189 -0.000000
v 4.271334 2.607421 0.000000
v 4.208907 2.729941 -0.000000
v 4.187397 2.865755 -0.000000
v 4.208907 3.001570 -0.000000
v 4.271334 3.124089 0.000000
v 4.368567 3.221321 0.000000
v 4.491086 3.283748 0.000000
v 4.626900 3.305259 0.000000
v 4.762714 3.283748 0.000000
v 4.885234 3.221322 0.000000
v 4.982466 3.124089 0.000000
v 5.044893 3.001570 -0.000000
v 5.066404 2.865755 -0.000000
v 5.044893 2.729941 -0.000000
v 4.982466 2.607422 0.000000
v 4.885234 2.510189 0.000000
v 4.745545 2.500604 -1.316642
v 4.626900 2.481812 -1.316642
v 4.508255 2.500604 -1.316642
v 4.401224 2.555139 -1.316642
v 4.316284 2.640079 -1.316642
v 4.261748 2.747110 -1.316642
v 4.242957 2.865755 -1.316642
v 4.261748 2.984400 -1.316642
v 4.316284 3.091432 -1.316642
v 4.401224 3.176372 -1.316642
v 4.508255 3.230907 -1.316642
v 4.626900 3.249699 -1.316642
v 4.745546 3.230907 -1.316642
v 4.852577 3.176372 -1.316642
v 4.937517 3.091432 -1.316642
v 4.992052 2.984400 -1.316642
v 5.010843 2.865755 -1.316642
v 4.992052 2.747110 -1.316642
v 4.937517 2.640079 -1.316642
v 4.852577 2.555139 -1.316642
vt 0.845690 0.333509
vt 0.840117 0.347939
vt 0.733936 0.321387
vt 0.737612 0.300185
vt 0.835811 0.362791
vt 0.730945 0.342708
vt 0.832741 0.377958
vt 0.728677 0.364141
vt 0.830888 0.393338
vt 0.727147 0.385675
vt 0.830244 0.408837
vt 0.726356 0.407292
vt 0.830811 0.424361
vt 0.726287 0.428975
vt 0.832604 0.439814
vt 0.726906 0.450709
vt 0.835650 0.455095
vt 0.728160 0.472487
vt 0.839989 0.470097
vt 0.729970 0.494306
vt 0.845677 0.484700
vt 0.732232 0.516179
vt 0.839722 0.554655
vt 0.730685 0.538167
vt 0.836736 0.569921
vt 0.729647 0.560080
vt 0.835032 0.585387
vt 0.729208 0.581927
vt 0.834585 0.600947
vt 0.729433 0.603704
vt 0.835386 0.616498
vt 0.730362 0.625405
vt 0.837436 0.631942
vt 0.732015 0.647015
vt 0.840750 0.647179
vt 0.734393 0.668521
vt 0.845352 0.662106
vt 0.737477 0.689912
vt 0.851282 0.676610
vt 0.741224 0.711184
vt 0.969457 0.407168
vt 0.143607 0.333074
vt 0.149219 0.347619
vt 0.015501 0.601090
vt 0.153549 0.362558
vt 0.156632 0.377784
vt 0.158492 0.393199
vt 0.159142 0.408707
vt 0.158583 0.424214
vt 0.156806 0.439622
vt 0.153787 0.454829
vt 0.149492 0.469725
vt 0.143867 0.484186
vt 0.149582 0.554305
vt 0.152599 0.569653
vt 0.154322 0.585170
vt 0.154779 0.600749
vt 0.153987 0.616292
vt 0.151947 0.631700
vt 0.148650 0.646873
vt 0.144076 0.661708
vt 0.138193 0.676092
vt 0.259954 0.603355
vt 0.259016 0.625033
vt 0.260183 0.581593
vt 0.259743 0.559761
vt 0.258695 0.537864
vt 0.257127 0.515900
vt 0.259379 0.494016
vt 0.261187 0.472194
vt 0.262443 0.450418
vt 0.263069 0.428683
vt 0.263011 0.406994
vt 0.262233 0.385363
vt 0.260720 0.363806
vt 0.258471 0.342338
vt 0.255505 0.320971
vt 0.251861 0.299713
vt 0.248062 0.710630
vt 0.251844 0.689418
vt 0.254952 0.668077
vt 0.257349 0.646612
vt 0.494513 0.615401
vt 0.494499 0.639804
vt 0.494533 0.591094
vt 0.494563 0.566897
vt 0.494608 0.542825
vt 0.494675 0.518889
vt 0.494743 0.494957
vt 0.494789 0.470894
vt 0.494818 0.446707
vt 0.494835 0.422411
vt 0.494843 0.398020
vt 0.494848 0.373552
vt 0.494852 0.349021
vt 0.494858 0.324444
vt 0.494868 0.299832
vt 0.494885 0.275192
vt 0.494431 0.738100
vt 0.494455 0.713442
vt 0.494473 0.688836
vt 0.494487 0.664286
vt 0.741919 0.279099
vt 0.494910 0.250526
vt 0.247599 0.278561
vt 0.136665 0.319038
vt 0.145229 0.539239
vt 0.019931 0.407128
vt 0.973861 0.601193
vt 0.852571 0.319617
vt 0.844030 0.539709
vn 0.936373 0.304247 -0.175039
vn 0.796527 0.578711 -0.175039
vn 0.806587 0.586018 -0.077462
vn 0.948198 0.308090 -0.077462
vn 0.578711 0.796527 -0.175038
vn 0.586020 0.806585 -0.077462
vn 0.304246 0.936374 -0.175039
vn 0.308088 0.948199 -0.077462
vn 0.000000 0.984561 -0.175039
vn 0.000000 0.996995 -0.077462
vn -0.304247 0.936373 -0.175039
vn -0.308089 0.948199 -0.077462
vn -0.578711 0.796527 -0.175038
vn -0.586019 0.806587 -0.077462
vn -0.796527 0.578710 -0.175039
vn -0.806586 0.586019 -0.077462
vn -0.936374 0.304246 -0.175039
vn -0.948199 0.308089 -0.077462
vn -0.984562 -0.000000 -0.175039
vn -0.996995 -0.000000 -0.077462
vn -0.936374 -0.304246 -0.175039
vn -0.948199 -0.308089 -0.077463
vn -0.796527 -0.578711 -0.175039
vn -0.806586 -0.586020 -0.077462
vn -0.578710 -0.796527 -0.175038
vn -0.586018 -0.806587 -0.077462
vn -0.304246 -0.936374 -0.175039
vn -0.308089 -0.948199 -0.077463
vn -0.000000 -0.984562 -0.175038
vn -0.000000 -0.996995 -0.077463
vn 0.304246 -0.936374 -0.175039
vn 0.308088 -0.948199 -0.077463
vn 0.578711 -0.796527 -0.175039
vn 0.586019 -0.806586 -0.077462
vn 0.796526 -0.578712 -0.175039
vn 0.806585 -0.586020 -0.077462
vn 0.936373 -0.304250 -0.175038
vn 0.948198 -0.308090 -0.077462
vn 0.984562 -0.000002 -0.175038
vn 0.996995 -0.000001 -0.077462
vn 0.755008 0.548541 -0.359259
vn 0.887561 0.288392 -0.359258
vn -0.000002 -0.000003 -1.000000
vn 0.548546 0.755004 -0.359258
vn 0.288385 0.887564 -0.359256
vn 0.000000 0.933239 -0.359255
vn -0.288388 0.887563 -0.359256
vn -0.548547 0.755003 -0.359259
vn -0.755007 0.548542 -0.359257
vn -0.887561 0.288392 -0.359257
vn -0.933238 0.000000 -0.359258
vn -0.887561 -0.288392 -0.359256
vn -0.755007 -0.548542 -0.359257
vn -0.548547 -0.755003 -0.359259
vn -0.288384 -0.887564 -0.359256
vn 0.000000 -0.933239 -0.359255
vn 0.288385 -0.887563 -0.359257
vn 0.548546 -0.755005 -0.359258
vn 0.755008 -0.548539 -0.359259
vn 0.887562 -0.288389 -0.359258
vn 0.933239 -0.000000 -0.359258
vn 0.887561 0.288392 0.359258
vn 0.755007 0.548542 0.359258
vn -0.000001 -0.000000 1.000000
vn 0.548546 0.755004 0.359259
vn 0.288387 0.887563 0.359257
vn 0.000000 0.933239 0.359257
vn -0.288386 0.887563 0.359256
vn -0.548546 0.755003 0.359259
vn -0.755008 0.548542 0.359257
vn -0.887560 0.288396 0.359256
vn -0.933239 0.000000 0.359257
vn -0.887561 -0.288396 0.359255
vn -0.755009 -0.548539 0.359258
vn -0.548547 -0.755002 0.359260
vn -0.288385 -0.887564 0.359256
vn 0.000000 -0.933240 0.359255
vn 0.288386 -0.887563 0.359257
vn 0.548547 -0.755003 0.359260
vn 0.755007 -0.548541 0.359258
vn 0.887561 -0.288392 0.359256
vn 0.933239 0.000000 0.359257
vn -0.000000 -0.996995 0.077463
vn 0.308089 -0.948199 0.077463
vn 0.304246 -0.936374 0.175040
vn -0.000000 -0.984561 0.175040
vn -0.308088 -0.948199 0.077463
vn -0.304246 -0.936373 0.175040
vn -0.586019 -0.806587 0.077462
vn -0.578710 -0.796527 0.175039
vn -0.806586 -0.586019 0.077463
vn -0.796527 -0.578711 0.175039
vn -0.948199 -0.308089 0.077463
vn -0.936374 -0.304246 0.175040
vn -0.996995 -0.000000 0.077463
vn -0.984561 0.000000 0.175040
vn -0.948199 0.308089 0.077463
vn -0.936374 0.304246 0.175039
vn -0.806586 0.586020 0.077462
vn -0.796528 0.578710 0.175039
vn -0.586019 0.806586 0.077462
vn -0.578711 0.796527 0.175038
vn -0.308089 0.948199 0.077462
vn -0.304247 0.936374 0.175038
vn -0.000000 0.996995 0.077462
vn -0.000000 0.984562 0.175038
vn 0.308088 0.948199 0.077462
vn 0.304245 0.936374 0.175038
vn 0.586020 0.806585 0.077462
vn 0.578712 0.796527 0.175039
vn 0.806586 0.586019 0.077462
vn 0.796527 0.578711 0.175039
vn 0.948198 0.308090 0.077462
vn 0.936373 0.304248 0.175038
vn 0.996995 -0.000000 0.077462
vn 0.984562 0.000000 0.175038
vn 0.948198 -0.308090 0.077462
vn 0.936373 -0.304248 0.175039
vn 0.806585 -0.586020 0.077462
vn 0.796526 -0.578712 0.175039
vn 0.586019 -0.806586 0.077462
vn 0.578710 -0.796527 0.175040
vn -0.000000 -1.000000 -0.000000
vn 0.309017 -0.951057 -0.000000
vn -0.309017 -0.951057 -0.000000
vn -0.587784 -0.809018 -0.000000
vn -0.809017 -0.587786 -0.000000
vn -0.951056 -0.309018 -0.000000
vn -1.000000 0.000000 0.000000
vn -0.951056 0.309018 0.000000
vn -0.809017 0.587786 0.000000
vn -0.587785 0.809017 0.000000
vn -0.309017 0.951056 0.000000
vn 0.000000 1.000000 0.000000
vn 0.309016 0.951057 0.000000
vn 0.587787 0.809016 -0.000000
vn 0.809018 0.587785 0.000000
vn 0.951056 0.309018 0.000000
vn 1.000000 0.000000 0.000000
vn 0.951056 -0.309018 -0.000000
vn 0.809016 -0.587786 -0.000000
vn 0.587785 -0.809017 -0.000000
s 1
g Simple_Laser
usemtl initialShadingGroup
f 1/1/1 2/2/2 97/3/3 98/4/4
f 2/2/2 3/5/5 96/6/6 97/3/3
f 3/5/5 4/7/7 95/8/8 96/6/6
f 4/7/7 5/9/9 94/10/10 95/8/8
f 5/9/9 6/11/11 93/12/12 94/10/10
f 6/11/11 7/13/13 92/14/14 93/12/12
f 7/13/13 8/15/15 91/16/16 92/14/14
f 8/15/15 9/17/17 90/18/18 91/16/16
f 9/17/17 10/19/19 89/20/20 90/18/18
f 10/19/19 11/21/21 88/22/22 89/20/20
f 11/111/21 12/23/23 87/24/24 88/22/22
f 12/23/23 13/25/25 86/26/26 87/24/24
f 13/25/25 14/27/27 85/28/28 86/26/26
f 14/27/27 15/29/29 84/30/30 85/28/28
f 15/29/29 16/31/31 83/32/32 84/30/30
f 16/31/31 17/33/33 102/34/34 83/32/32
f 17/33/33 18/35/35 101/36/36 102/34/34
f 18/35/35 19/37/37 100/38/38 101/36/36
f 19/37/37 20/39/39 99/40/40 100/38/38
f 20/110/39 1/1/1 98/4/4 99/103/40
s 2
f 2/2/41 1/1/42 41/41/43
f 3/5/44 2/2/41 41/41/43
f 4/7/45 3/5/44 41/41/43
f 5/9/46 4/7/45 41/41/43
f 6/11/47 5/9/46 41/41/43
f 7/13/48 6/11/47 41/41/43
f 8/15/49 7/13/48 41/41/43
f 9/17/50 8/15/49 41/41/43
f 10/19/51 9/17/50 41/41/43
f 11/21/52 10/19/51 41/41/43
f 12/23/53 11/111/52 41/109/43
f 13/25/54 12/23/53 41/109/43
f 14/27/55 13/25/54 41/109/43
f 15/29/56 14/27/55 41/109/43
f 16/31/57 15/29/56 41/109/43
f 17/33/58 16/31/57 41/109/43
f 18/35/59 17/33/58 41/109/43
f 19/37/60 18/35/59 41/109/43
f 20/39/61 19/37/60 41/109/43
f 1/1/42 20/110/61 41/41/43
s 3
f 21/42/62 22/43/63 42/108/64
f 22/43/63 23/45/65 42/108/64
f 23/45/65 24/46/66 42/108/64
f 24/46/66 25/47/67 42/108/64
f 25/47/67 26/48/68 42/108/64
f 26/48/68 27/49/69 42/108/64
f 27/49/69 28/50/70 42/108/64
f 28/50/70 29/51/71 42/108/64
f 29/51/71 30/52/72 42/108/64
f 30/52/72 31/53/73 42/108/64
f 31/107/73 32/54/74 42/44/64
f 32/54/74 33/55/75 42/44/64
f 33/55/75 34/56/76 42/44/64
f 34/56/76 35/57/77 42/44/64
f 35/57/77 36/58/78 42/44/64
f 36/58/78 37/59/79 42/44/64
f 37/59/79 38/60/80 42/44/64
f 38/60/80 39/61/81 42/44/64
f 39/61/81 40/62/82 42/44/64
f 40/106/82 21/42/62 42/108/64
s 1
f 44/63/83 43/64/84 36/58/85 35/57/86
f 45/65/87 44/63/83 35/57/86 34/56/88
f 46/66/89 45/65/87 34/56/88 33/55/90
f 47/67/91 46/66/89 33/55/90 32/54/92
f 48/68/93 47/67/91 32/54/92 31/107/94
f 49/69/95 48/68/93 31/53/94 30/52/96
f 50/70/97 49/69/95 30/52/96 29/51/98
f 51/71/99 50/70/97 29/51/98 28/50/100
f 52/72/101 51/71/99 28/50/100 27/49/102
f 53/73/103 52/72/101 27/49/102 26/48/104
f 54/74/105 53/73/103 26/48/104 25/47/106
f 55/75/107 54/74/105 25/47/106 24/46/108
f 56/76/109 55/75/107 24/46/108 23/45/110
f 57/77/111 56/76/109 23/45/110 22/43/112
f 58/78/113 57/77/111 22/43/112 21/42/114
f 59/105/115 58/78/113 21/42/114 40/106/116
f 60/80/117 59/79/115 40/62/116 39/61/118
f 61/81/119 60/80/117 39/61/118 38/60/120
f 62/82/121 61/81/119 38/60/120 37/59/122
f 43/64/84 62/82/121 37/59/122 36/58/85
f 64/83/123 63/84/124 43/64/84 44/63/83
f 65/85/125 64/83/123 44/63/83 45/65/87
f 66/86/126 65/85/125 45/65/87 46/66/89
f 67/87/127 66/86/126 46/66/89 47/67/91
f 68/88/128 67/87/127 47/67/91 48/68/93
f 69/89/129 68/88/128 48/68/93 49/69/95
f 70/90/130 69/89/129 49/69/95 50/70/97
f 71/91/131 70/90/130 50/70/97 51/71/99
f 72/92/132 71/91/131 51/71/99 52/72/101
f 73/93/133 72/92/132 52/72/101 53/73/103
f 74/94/134 73/93/133 53/73/103 54/74/105
f 75/95/135 74/94/134 54/74/105 55/75/107
f 76/96/136 75/95/135 55/75/107 56/76/109
f 77/97/137 76/96/136 56/76/109 57/77/111
f 78/98/138 77/97/137 57/77/111 58/78/113
f 79/104/139 78/98/138 58/78/113 59/105/115
f 80/100/140 79/99/139 59/79/115 60/80/117
f 81/101/141 80/100/140 60/80/117 61/81/119
f 82/102/142 81/101/141 61/81/119 62/82/121
f 63/84/124 82/102/142 62/82/121 43/64/84
f 84/30/30 83/32/32 63/84/124 64/83/123
f 85/28/28 84/30/30 64/83/123 65/85/125
f 86/26/26 85/28/28 65/85/125 66/86/126
f 87/24/24 86/26/26 66/86/126 67/87/127
f 88/22/22 87/24/24 67/87/127 68/88/128
f 89/20/20 88/22/22 68/88/128 69/89/129
f 90/18/18 89/20/20 69/89/129 70/90/130
f 91/16/16 90/18/18 70/90/130 71/91/131
f 92/14/14 91/16/16 71/91/131 72/92/132
f 93/12/12 92/14/14 72/92/132 73/93/133
f 94/10/10 93/12/12 73/93/133 74/94/134
f 95/8/8 94/10/10 74/94/134 75/95/135
f 96/6/6 95/8/8 75/95/135 76/96/136
f 97/3/3 96/6/6 76/96/136 77/97/137
f 98/4/4 97/3/3 77/97/137 78/98/138
f 99/103/40 98/4/4 78/98/138 79/104/139
f 100/38/38 99/40/40 79/99/139 80/100/140
f 101/36/36 100/38/38 80/100/140 81/101/141
f 102/34/34 101/36/36 81/101/141 82/102/142
f 83/32/32 102/34/34 82/102/142 63/84/124
