# This file uses centimeters as units for non-parametric coordinates.

mtllib Challenge 3 Crystal.mtl
g default
v 0.000000 0.000000 10.160000
v 7.620000 0.000000 0.000000
v 0.000000 0.000000 -20.320000
v -7.620000 0.000000 0.000000
v -2.540000 5.080000 0.000000
v 2.540000 5.080000 0.000000
v 2.540000 5.080000 0.000000
v 0.000000 0.000000 10.160000
v 0.000000 0.000000 -20.320000
v -2.540000 5.080000 0.000000
v 0.000000 0.000000 10.160000
v -7.620000 0.000000 0.000000
v 0.000000 0.000000 -20.320000
v 7.620000 -0.000000 0.000000
v 2.540000 -5.080000 0.000000
v -2.540000 -5.080000 0.000000
v -2.540000 -5.080000 0.000000
v 0.000000 0.000000 10.160000
v 0.000000 0.000000 -20.320000
v 2.540000 -5.080000 0.000000
vt 0.033891 0.368400
vt 0.172264 0.368400
vt 0.241450 0.894799
vt 0.241450 0.105201
vt 0.449009 0.368400
vt 0.310636 0.368400
vt 0.172264 0.368400
vt 0.310636 0.368400
vt 0.241450 0.894799
vt 0.241450 0.105201
vt 0.517162 0.368400
vt 0.655535 0.368400
vt 0.724721 0.894799
vt 0.724721 0.105201
vt 0.932280 0.368400
vt 0.793908 0.368400
vt 0.655535 0.368400
vt 0.793908 0.368400
vt 0.724721 0.894799
vt 0.724721 0.105201
vn -0.706862 0.706862 -0.026314
vn -0.707082 0.707082 -0.008425
vn -0.683486 0.683486 -0.256307
vn 0.624695 0.624695 0.468521
vn 0.706862 0.706862 -0.026314
vn 0.707082 0.707082 -0.008425
vn 0.000000 0.999932 -0.011680
vn 0.000000 0.999932 -0.011680
vn 0.000000 0.970143 -0.242536
vn 0.000000 0.000000 0.000000
vn 0.000000 0.000000 0.000000
vn 0.000000 0.000000 0.000000
vn 0.000000 0.000000 0.000000
vn 0.000000 0.000000 0.000000
vn 0.000000 0.000000 0.000000
vn 0.000000 0.000000 0.000000
vn 0.000000 0.000000 0.000000
vn 0.000000 -0.000000 0.000000
vn 0.000000 -0.894427 0.447214
vn 0.000000 -0.894427 0.447214
vn 0.000000 -0.000000 0.000000
vn 0.000000 -0.792329 -0.610094
vn 0.000000 -0.000000 -0.000000
vn 0.000000 -0.000000 -0.000000
vn 0.000000 -0.792329 -0.610094
vn -0.624695 0.624695 0.468521
vn 0.000000 0.894427 0.447214
vn 0.683486 0.683486 -0.256307
vn 0.706862 -0.706862 -0.026314
vn 0.707082 -0.707082 -0.008425
vn 0.683486 -0.683486 -0.256307
vn -0.624695 -0.624695 0.468521
vn -0.706862 -0.706862 -0.026314
vn -0.707082 -0.707082 -0.008425
vn 0.000000 -0.999932 -0.011680
vn 0.000000 -0.999932 -0.011680
vn 0.000000 -0.970143 -0.242536
vn 0.000000 0.000000 0.000000
vn 0.000000 0.000000 0.000000
vn 0.000000 0.000000 0.000000
vn 0.000000 0.000000 0.000000
vn 0.000000 0.000000 0.000000
vn 0.000000 0.000000 0.000000
vn 0.000000 0.000000 0.000000
vn 0.000000 0.000000 0.000000
vn 0.000000 0.000000 0.000000
vn 0.000000 0.894427 0.447214
vn 0.000000 0.894427 0.447214
vn 0.000000 0.000000 0.000000
vn 0.000000 0.792329 -0.610094
vn 0.000000 0.000000 -0.000000
vn 0.000000 0.000000 -0.000000
vn 0.000000 0.792329 -0.610094
vn 0.624695 -0.624695 0.468521
vn 0.000000 -0.894427 0.447214
vn -0.683486 -0.683486 -0.256307
s 1
g polySurface3
usemtl blinn1SG
f 4/1/1 5/2/2 3/3/3
s 2
f 1/4/4 2/5/5 6/6/6
s 3
f 10/7/7 7/8/8 9/9/9
s off
f 1/4/10 6/6/11 7/8/12 8/10/13
f 6/6/14 3/3/15 9/9/16 7/8/17
f 3/3/18 5/2/19 10/7/20 9/9/21
f 5/2/22 1/4/23 8/10/24 10/7/25
s 1
f 1/4/26 5/2/2 4/1/1
s 3
f 8/10/27 7/8/8 10/7/7
s 2
f 6/6/6 2/5/5 3/3/28
s 4
f 14/11/29 15/12/30 13/13/31
s 5
f 11/14/32 12/15/33 16/16/34
s 6
f 20/17/35 17/18/36 19/19/37
s off
f 11/14/38 16/16/39 17/18/40 18/20/41
f 16/16/42 13/13/43 19/19/44 17/18/45
f 13/13/46 15/12/47 20/17/48 19/19/49
f 15/12/50 11/14/51 18/20/52 20/17/53
s 4
f 11/14/54 15/12/30 14/11/29
s 6
f 18/20/55 17/18/36 20/17/35
s 5
f 16/16/34 12/15/33 13/13/56
