# This file uses centimeters as units for non-parametric coordinates.

mtllib Challenge 3 Crystal Variant.mtl
g default
v -0.000000 0.000000 10.160000
v 7.620000 0.000000 -0.000000
v -0.000000 0.000000 -20.320000
v -7.620000 0.000000 0.000000
v -2.540000 5.080000 0.000000
v 2.540000 5.080000 -0.000000
v 2.540000 5.080000 0.000000
v 0.000000 0.000000 10.160000
v 0.000000 0.000000 -20.320000
v -2.540000 5.080000 0.000000
v 0.000000 0.000000 10.160000
v -7.620000 0.000000 0.000000
v 0.000000 0.000000 -20.320000
v 7.620000 -0.000000 0.000000
v 2.540000 -5.080000 0.000000
v -2.540000 -5.080000 0.000000
v -2.540000 -5.080000 0.000000
v 0.000000 0.000000 10.160000
v 0.000000 -0.000000 -20.320000
v 2.540000 -5.080000 0.000000
v 0.417316 0.278210 8.490735
v 7.202684 0.278211 -0.556421
v 2.679105 4.801789 -0.556421
v 0.417316 0.278210 -18.650736
v -7.155331 0.309779 -0.619559
v -2.694890 4.770220 -0.619559
v -0.464670 0.309780 -18.461321
v -0.464670 0.309780 8.301322
v -2.231406 4.771406 -0.617188
v 2.231406 4.771406 -0.617188
v 0.000000 0.308594 -18.468437
v 0.000000 0.308594 8.308436
v 2.082696 -4.231284 -1.531860
v -2.082696 -4.231284 -1.531860
v 0.000000 -0.065892 -18.193430
v 0.000000 -0.476262 9.207477
v -6.191215 -0.476262 0.952523
v -2.063738 -4.603738 0.952523
v 0.000000 -0.476262 9.207477
v 2.063738 -4.603738 0.952523
v 6.191215 -0.476262 0.952523
v -2.063738 -4.603738 0.952523
v 0.000000 -0.476262 9.207477
v 2.063738 -4.603738 0.952523
v 6.940292 -0.226569 -0.906277
v 2.313430 -4.853431 -0.906277
v 0.000000 -0.226569 -19.413723
v -6.940292 -0.226569 -0.906277
v -2.313431 -4.853431 -0.906277
v 0.000000 -0.226569 -19.413723
v 0.000000 0.000000 10.160000
v 0.000000 0.000000 10.160000
v 0.000000 0.000000 10.160000
vt 0.521958 0.039635
vt 0.564203 0.197834
vt 0.521958 0.039635
vt 0.521958 0.514232
vt 0.521958 0.514232
vt 0.479712 0.197834
vt 0.479712 0.197834
vt 0.648693 0.197834
vt 0.641752 0.206498
vt 0.819391 0.014400
vt 0.864920 0.175903
vt 0.864920 0.175903
vt 0.819391 0.014400
vt 0.819391 0.498910
vt 0.819391 0.498910
vt 0.773861 0.175903
vt 0.856723 0.200254
vt 0.782058 0.200254
vt 0.218886 0.028111
vt 0.528898 0.065627
vt 0.256696 0.171948
vt 0.129267 0.173942
vt 0.528898 0.488241
vt 0.514229 0.485291
vt 0.167077 0.030105
vt 0.230234 0.172390
vt 0.477136 0.207481
vt 0.395222 0.197834
vt 0.192424 0.028553
vt 0.306912 0.556178
vt 0.819391 0.465106
vt 0.955978 0.175903
vt 0.350721 0.389518
vt 0.930367 0.160762
vt 0.819391 0.029541
vt 0.856383 0.160762
vt 0.782398 0.160762
vt 0.350721 0.389518
vt 0.682803 0.175903
vt 0.219293 0.556178
vt 0.708414 0.160762
vt 0.856383 0.160762
vt 0.394531 0.556178
vt 0.819391 0.029541
vt 0.402950 0.207481
vt 0.154614 0.172390
vt 0.514229 0.068576
vt 0.192424 0.460065
vt 0.053647 0.173942
vt 0.521958 0.485402
vt 0.559070 0.207444
vt 0.167077 0.461617
vt 0.218886 0.459623
vt 0.484845 0.207444
vt 0.332316 0.171948
vt 0.521958 0.068465
vt 0.350721 0.889499
vt 0.782398 0.160762
vt 0.482150 0.556178
vt 0.350721 0.889499
vt 0.306912 0.556178
vt 0.694987 0.190309
vt 0.306912 0.556178
vt 0.394531 0.556178
vt 0.219293 0.556178
vt 0.819391 0.484504
vt 0.306912 0.556178
vt 0.394531 0.556178
vt 0.943794 0.190309
vt 0.482150 0.556178
vt 0.860858 0.190309
vt 0.350721 0.889499
vt 0.394531 0.556178
vt 0.777923 0.190309
vt 0.819391 0.498910
vt 0.773861 0.175903
vt 0.819391 0.484504
vt 0.819391 0.498910
vt 0.819391 0.029541
vt 0.773861 0.175903
vt 0.819391 0.014400
vt 0.819391 0.014400
vt 0.819391 0.014400
vt 0.864920 0.175903
vt 0.864920 0.175903
vt 0.864920 0.175903
vt 0.955978 0.175903
vt 0.566516 0.206498
vt 0.564203 0.197834
vt 0.521958 0.039635
vt 0.848328 0.110390
vt 0.791917 0.223212
vt 0.795006 0.204676
vt 0.845238 0.104212
vn -0.706862 0.706862 -0.026314
vn -0.707082 0.707082 -0.008425
vn -0.683486 0.683486 -0.256307
vn 0.624695 0.624695 0.468521
vn 0.706862 0.706862 -0.026314
vn 0.707082 0.707082 -0.008425
vn 0.000000 0.999932 -0.011680
vn 0.000000 0.999932 -0.011680
vn 0.000000 0.970143 -0.242536
vn -0.846122 -0.532990 0.000000
vn -0.846122 -0.532990 0.000000
vn -0.846122 -0.532990 0.000000
vn -0.846122 -0.532990 0.000000
vn -0.980874 0.194642 0.000000
vn -0.980874 0.194642 0.000000
vn -0.980874 0.194642 0.000000
vn -0.980874 0.194642 0.000000
vn 0.987826 0.000000 0.155563
vn 0.987826 0.000000 0.155563
vn 0.987826 0.000000 0.155563
vn 0.987826 0.000000 0.155563
vn 0.991010 -0.000000 -0.133786
vn 0.991010 -0.000000 -0.133786
vn 0.991010 -0.000000 -0.133786
vn 0.991010 -0.000000 -0.133786
vn -0.624695 0.624695 0.468521
vn 0.000000 0.894427 0.447214
vn 0.683486 0.683486 -0.256307
vn 0.683486 -0.683486 -0.256307
vn 0.683486 -0.683486 -0.256307
vn 0.683486 -0.683486 -0.256307
vn -0.624695 -0.624695 0.468521
vn -0.624695 -0.624695 0.468521
vn -0.624695 -0.624695 0.468521
vn 0.000000 -0.970143 -0.242536
vn 0.000000 -0.970143 -0.242536
vn 0.000000 -0.970143 -0.242536
vn 0.000000 0.000000 0.000000
vn 0.000000 0.000000 0.000000
vn 0.000000 0.000000 0.000000
vn 0.000000 0.000000 0.000000
vn 0.000000 0.000000 0.000000
vn 0.000000 0.000000 0.000000
vn 0.000000 0.000000 0.000000
vn 0.000000 0.000000 0.000000
vn 0.140580 0.885545 0.442772
vn 0.140580 0.885545 0.442772
vn 0.140580 0.885545 0.442772
vn 0.140580 0.885545 0.442772
vn 0.000000 0.792329 -0.610094
vn 0.000000 0.000000 -0.000000
vn 0.000000 0.000000 -0.000000
vn 0.000000 0.792329 -0.610094
vn 0.624695 -0.624695 0.468521
vn 0.624695 -0.624695 0.468521
vn 0.624695 -0.624695 0.468521
vn 0.000000 -0.894427 0.447214
vn 0.000000 -0.894427 0.447214
vn 0.000000 -0.894427 0.447214
vn -0.683486 -0.683486 -0.256307
vn -0.683486 -0.683486 -0.256307
vn -0.683486 -0.683486 -0.256307
vn 0.307692 0.923077 0.230769
vn 0.307692 0.923077 0.230769
vn 0.307692 0.923077 0.230769
vn 0.307692 0.923077 0.230769
vn 0.970143 -0.000000 0.242535
vn 0.970143 -0.000000 0.242535
vn 0.970143 -0.000000 0.242535
vn 0.970143 -0.000000 0.242535
vn 0.766260 0.574697 -0.287348
vn 0.766260 0.574697 -0.287348
vn 0.766261 0.574697 -0.287348
vn 0.766261 0.574697 -0.287348
vn 0.534523 0.801783 -0.267261
vn 0.534523 0.801783 -0.267261
vn 0.534523 0.801783 -0.267261
vn 0.534523 0.801783 -0.267261
vn -0.534523 0.801783 -0.267261
vn -0.534523 0.801783 -0.267261
vn -0.534523 0.801783 -0.267261
vn -0.534523 0.801783 -0.267261
vn -0.766261 0.574696 -0.287348
vn -0.766261 0.574696 -0.287348
vn -0.766261 0.574696 -0.287348
vn -0.766261 0.574696 -0.287348
vn -0.970143 0.000000 0.242536
vn -0.970142 0.000000 0.242536
vn -0.970143 0.000000 0.242536
vn -0.970142 0.000000 0.242536
vn -0.307692 0.923077 0.230769
vn -0.307692 0.923077 0.230769
vn -0.307692 0.923077 0.230769
vn -0.307692 0.923077 0.230769
vn -0.549442 0.824163 -0.137361
vn -0.549442 0.824163 -0.137361
vn -0.549442 0.824163 -0.137361
vn -0.549442 0.824163 -0.137361
vn 0.549442 0.824163 -0.137361
vn 0.549442 0.824163 -0.137361
vn 0.549442 0.824163 -0.137361
vn 0.549442 0.824163 -0.137361
vn -0.796030 0.597022 0.099504
vn -0.796030 0.597022 0.099504
vn -0.796030 0.597022 0.099504
vn -0.796030 0.597022 0.099504
vn 0.796030 0.597022 0.099504
vn 0.796030 0.597022 0.099504
vn 0.796030 0.597022 0.099504
vn 0.796030 0.597022 0.099504
vn 0.000000 -0.874719 -0.484632
vn 0.000000 -0.874719 -0.484632
vn 0.000000 -0.874718 -0.484631
vn 0.000000 -0.874718 -0.484631
vn 0.868399 -0.495628 -0.015357
vn 0.868399 -0.495628 -0.015357
vn 0.868399 -0.495628 -0.015357
vn 0.868399 -0.495628 -0.015357
vn -0.868400 -0.495627 -0.015357
vn -0.868399 -0.495627 -0.015357
vn -0.868399 -0.495627 -0.015357
vn -0.868399 -0.495627 -0.015357
vn -0.512148 -0.768221 0.384111
vn -0.512148 -0.768221 0.384111
vn -0.512148 -0.768221 0.384111
vn -0.512148 -0.768221 0.384111
vn -0.577350 -0.577350 0.577350
vn -0.577350 -0.577350 0.577350
vn -0.577350 -0.577350 0.577350
vn -0.577350 -0.577350 0.577350
vn 0.577350 -0.577350 0.577350
vn 0.577350 -0.577350 0.577350
vn 0.577350 -0.577350 0.577350
vn 0.577350 -0.577350 0.577350
vn 0.512148 -0.768221 0.384111
vn 0.512148 -0.768221 0.384111
vn 0.512148 -0.768221 0.384111
vn 0.512148 -0.768221 0.384111
vn -0.000001 -0.894427 0.447214
vn -0.000001 -0.894427 0.447214
vn -0.000001 -0.894427 0.447214
vn -0.000001 -0.894427 0.447214
vn 0.000000 -0.894427 0.447213
vn 0.000000 -0.894427 0.447213
vn 0.000000 -0.894427 0.447213
vn 0.000000 -0.894427 0.447213
vn 0.000001 -0.894427 0.447214
vn 0.000001 -0.894427 0.447214
vn 0.000001 -0.894427 0.447214
vn 0.000001 -0.894427 0.447214
vn 0.666667 -0.666667 -0.333333
vn 0.666667 -0.666667 -0.333333
vn 0.666667 -0.666667 -0.333333
vn 0.666667 -0.666667 -0.333333
vn 0.543076 -0.814613 -0.203653
vn 0.543076 -0.814613 -0.203653
vn 0.543076 -0.814613 -0.203653
vn 0.543076 -0.814613 -0.203653
vn -0.666667 -0.666667 -0.333333
vn -0.666667 -0.666667 -0.333333
vn -0.666667 -0.666667 -0.333333
vn -0.666667 -0.666667 -0.333333
vn -0.543076 -0.814613 -0.203653
vn -0.543076 -0.814613 -0.203653
vn -0.543076 -0.814613 -0.203653
vn -0.543076 -0.814613 -0.203653
vn 0.000002 0.970142 0.242536
vn 0.000002 0.970142 0.242536
vn 0.000002 0.970142 0.242536
vn 0.000002 0.970142 0.242536
s 1
g polySurface3
usemtl blinn1SG
f 25/49/1 26/22/2 27/52/3
s 2
f 21/19/4 22/55/5 23/21/6
s 3
f 29/46/7 30/26/8 31/48/9
s off
usemtl lambert2SG
f 1/1/10 6/89/11 7/2/12 8/3/13
f 6/89/14 3/4/15 9/5/16 7/2/17
f 3/4/18 5/6/19 10/7/20 9/5/21
f 5/6/22 1/1/23 8/3/24 10/7/25
s 1
usemtl blinn1SG
f 28/25/26 26/22/2 25/49/1
s 3
f 32/29/27 30/26/8 29/46/7
s 2
f 23/21/6 22/55/5 24/53/28
s off
f 45/40/29 46/61/30 47/60/31
f 36/33/32 37/70/33 38/68/34
f 33/30/35 34/73/36 35/72/37
usemtl lambert2SG
f 53/81/38 16/11/39 17/12/40 18/13/41
f 16/84/42 13/78/43 19/15/44 17/12/45
f 13/78/46 15/76/47 20/16/48 19/15/49
f 15/76/50 52/82/51 18/13/52 20/16/53
usemtl blinn1SG
f 39/33/54 40/67/55 41/65/56
f 43/38/57 42/64/58 44/63/59
f 49/43/60 48/59/61 50/57/62
usemtl lambert2SG
f 1/90/63 2/8/64 22/9/65 21/20/66
f 6/91/67 1/92/68 21/93/69 23/94/70
f 2/8/71 3/4/72 24/23/73 22/9/74
f 3/4/75 6/89/76 23/88/77 24/23/78
f 5/6/79 3/4/80 27/24/81 26/27/82
f 3/4/83 4/28/84 25/45/85 27/24/86
f 1/1/87 5/6/88 26/27/89 28/47/90
f 4/28/91 1/1/92 28/47/93 25/45/94
f 7/2/95 9/5/96 31/50/97 30/51/98
f 9/5/99 10/7/100 29/54/101 31/50/102
f 8/3/103 7/2/104 30/51/105 32/56/106
f 10/7/107 8/3/108 32/56/109 29/54/110
f 20/16/111 17/12/112 34/17/113 33/18/114
f 17/12/115 19/15/116 35/31/117 34/17/118
f 19/15/119 20/16/120 33/18/121 35/31/122
f 51/83/123 12/32/124 37/34/125 36/35/126
f 12/32/127 16/86/128 38/36/129 37/34/130
f 15/80/131 14/39/132 41/41/133 40/37/134
f 14/39/135 11/10/136 39/79/137 41/41/138
f 18/13/139 17/12/140 42/42/141 43/44/142
f 17/12/143 20/16/144 44/58/145 42/42/146
f 20/16/147 18/13/148 43/44/149 44/58/150
f 14/39/151 15/80/152 46/74/153 45/62/154
f 13/75/155 14/39/156 45/62/157 47/66/158
f 16/85/159 12/87/160 48/69/161 49/71/162
f 12/87/163 13/14/164 50/77/165 48/69/166
f 13//167 16//168 49//169 50//170
