# This file uses centimeters as units for non-parametric coordinates.

mtllib Lab3Hammer.mtl
g default
v -4.828624 5.688120 -5.199669
v -1.007889 5.688120 -5.199669
v -4.828624 7.110404 -5.199669
v -1.007889 7.110404 -5.199669
v -4.828624 7.110404 -6.621954
v -1.007889 7.110404 -6.621954
v -4.828624 5.688120 -6.621954
v -1.007889 5.688120 -6.621954
v -4.828624 5.688120 -6.231727
v -4.828624 5.688120 -5.589895
v -4.828624 7.110404 -5.589895
v -4.828624 7.110404 -6.231727
v -7.170695 5.688120 -5.199669
v -6.431231 6.278822 -5.199669
v -6.431231 6.278822 -5.589895
v -7.170695 5.688120 -5.589895
v -6.431231 6.278822 -6.621954
v -7.170695 5.688120 -6.621954
v -7.170695 5.688120 -6.231727
v -6.431231 6.278822 -6.231727
v -0.749654 5.793983 -6.516091
v -0.749654 5.793983 -5.305531
v -0.749654 7.004541 -6.516091
v -0.749654 7.004541 -5.305531
vt 0.358937 0.401678
vt 0.358937 0.343483
vt 0.417132 0.343483
vt 0.417132 0.401678
vt 0.929441 0.391886
vt 0.929441 0.361237
vt 0.997358 0.361237
vt 0.997358 0.391886
vt 0.422221 0.597766
vt 0.422221 0.414092
vt 0.490594 0.414093
vt 0.490594 0.597766
vt 0.427310 0.401678
vt 0.485505 0.401678
vt 0.471835 0.597766
vt 0.440980 0.597766
vt 0.490594 0.674808
vt 0.471835 0.674808
vt 0.440980 0.674808
vt 0.422221 0.674808
vt 0.490594 0.710356
vt 0.471835 0.710356
vt 0.422221 0.710356
vt 0.440980 0.710356
vt 0.558967 0.597766
vt 0.558967 0.414093
vt 0.627340 0.414093
vt 0.627340 0.597766
vt 0.564056 0.401678
vt 0.622251 0.401678
vt 0.608581 0.597766
vt 0.577727 0.597766
vt 0.627340 0.710356
vt 0.608581 0.710356
vt 0.577727 0.710356
vt 0.558967 0.710356
vt 0.353848 0.597766
vt 0.353848 0.414093
vt 0.382245 0.674808
vt 0.353848 0.710356
vt 0.495683 0.401678
vt 0.553878 0.401678
vt 0.558967 0.710356
vt 0.530571 0.674808
vt 0.929440 0.249399
vt 0.957648 0.284710
vt 0.957648 0.468414
vt 0.929441 0.503725
vn 0.000000 0.000000 1.000000
vn 0.018817 0.000000 0.999823
vn 0.018817 0.000000 0.999823
vn 0.000000 0.000000 1.000000
vn 0.000000 1.000000 0.000000
vn 0.018817 0.999823 0.000000
vn 0.018817 0.999823 0.000000
vn 0.000000 1.000000 0.000000
vn 0.000000 0.000000 -1.000000
vn 0.018817 0.000000 -0.999823
vn 0.018817 0.000000 -0.999823
vn 0.000000 0.000000 -1.000000
vn 0.000000 -1.000000 0.000000
vn 0.018817 -0.999823 0.000000
vn 0.018817 -0.999823 0.000000
vn 0.000000 -1.000000 0.000000
vn 1.000000 0.000000 0.000000
vn 1.000000 0.000000 0.000000
vn 1.000000 0.000000 0.000000
vn 1.000000 0.000000 0.000000
vn -1.000000 0.000000 0.000000
vn -1.000000 0.000000 0.000000
vn -1.000000 0.000000 0.000000
vn -1.000000 0.000000 0.000000
vn 0.000000 -0.000000 0.000000
vn 0.000000 -0.000000 0.000000
vn 0.000000 -1.000000 0.000000
vn 0.000000 -1.000000 0.000000
vn -0.624135 0.781317 0.000000
vn -0.624135 0.781317 0.000000
vn -0.624135 0.781317 0.000000
vn -0.624135 0.781317 0.000000
vn 0.000000 0.000000 0.000000
vn 0.000000 0.000000 0.000000
vn 0.000000 1.000000 0.000000
vn 0.000000 1.000000 0.000000
vn -0.624135 0.781316 0.000000
vn -0.624135 0.781316 0.000000
vn -0.624135 0.781316 0.000000
vn -0.624135 0.781316 0.000000
vn 0.000000 0.000000 1.000000
vn 0.000000 0.000000 1.000000
vn -0.460579 0.887619 0.000000
vn -0.460579 0.887619 0.000000
vn -0.460579 0.887619 0.000000
vn -0.460579 0.887619 0.000000
vn 0.000000 0.000000 -1.000000
vn 0.000000 0.000000 -1.000000
vn 0.000000 0.000000 -1.000000
vn 0.000000 0.000000 -1.000000
vn 0.000000 -1.000000 0.000000
vn 0.000000 -1.000000 0.000000
vn 0.000000 -1.000000 0.000000
vn 0.000000 -1.000000 0.000000
vn 0.000000 0.000000 -1.000000
vn 0.000000 0.000000 -1.000000
vn 0.000000 -1.000000 0.000000
vn 0.000000 -1.000000 0.000000
vn 0.000000 -1.000000 0.000000
vn 0.000000 -1.000000 0.000000
vn 0.000000 0.000000 1.000000
vn 0.000000 0.000000 1.000000
vn 0.000000 0.000000 1.000000
vn 0.000000 0.000000 1.000000
vn -0.460579 0.887619 0.000000
vn -0.460579 0.887619 0.000000
vn -0.460579 0.887619 0.000000
vn -0.460579 0.887619 0.000000
vn 0.379310 -0.925269 0.000000
vn 0.379310 -0.925270 0.000000
vn 0.379311 0.000000 -0.925269
vn 0.379311 0.000000 -0.925269
vn 0.379310 0.925269 0.000000
vn 0.379310 0.925270 0.000000
vn 0.379308 0.000000 0.925271
vn 0.379308 0.000000 0.925271
s 1
g pCube2
usemtl blinn1SG
f 1/37/1 2/38/2 4/10/3 3/9/4
s 2
f 3/9/5 4/10/6 6/11/7 5/12/8
s 3
f 5/12/9 6/11/10 8/26/11 7/25/12
s 4
f 7/25/13 8/26/14 2/27/15 1/28/16
s off
f 22/1/17 21/2/18 23/3/19 24/4/20
f 9/5/21 10/6/22 11/7/23 12/8/24
f 7/25/25 1/28/26 10/31/27 9/32/28
f 13/23/29 14/20/30 15/19/31 16/24/32
f 3/9/33 5/12/34 12/15/35 11/16/36
f 17/17/37 18/21/38 19/22/39 20/18/40
s 1
f 1/37/1 3/9/4 14/39/41 13/40/42
s off
f 3/9/43 11/16/44 15/19/45 14/20/46
f 11/7/47 10/6/48 16/45/49 15/46/50
f 10/31/51 1/28/52 13/33/53 16/34/54
s 3
f 5/12/9 7/25/12 18/43/55 17/44/56
s off
f 7/25/57 9/32/58 19/35/59 18/36/60
f 9/5/61 12/8/62 20/47/63 19/48/64
f 12/15/65 5/12/66 17/17/67 20/18/68
s 4
f 2/27/15 8/26/14 21/29/69 22/30/70
s 3
f 8/26/11 6/11/10 23/41/71 21/42/72
s 2
f 6/11/7 4/10/6 24/13/73 23/14/74
s 1
f 4/10/3 2/38/2 22/1/75 24/4/76
g default
v -3.418257 -0.019111 -5.531000
v -3.168282 -0.019111 -5.281025
v -3.418257 5.688120 -5.531000
v -3.168282 5.688120 -5.281025
v -2.418257 -0.019111 -5.531000
v -2.668232 -0.019111 -5.281025
v -2.418257 5.688120 -5.531000
v -2.668232 5.688120 -5.281025
v -3.418257 5.688120 -6.312732
v -3.168282 5.688120 -6.562707
v -3.418257 -0.019111 -6.312732
v -3.168282 -0.019111 -6.562707
v -2.668232 5.688120 -6.562707
v -2.418257 5.688120 -6.312732
v -2.418257 -0.019111 -6.312732
v -2.668232 -0.019111 -6.562707
vt 0.133228 0.778854
vt 0.121590 0.807849
vt 0.098309 0.807849
vt 0.086671 0.778854
vt 0.086671 0.688180
vt 0.098309 0.659186
vt 0.121590 0.659186
vt 0.133228 0.688180
vt 0.121590 0.414264
vt 0.098309 0.414264
vt 0.196618 0.659186
vt 0.196618 0.414264
vt 0.023281 0.659186
vt 0.081558 0.414264
vt 0.081558 0.659186
vt 0.040032 0.659186
vt 0.040032 0.414264
vt 0.179867 0.414264
vt 0.179867 0.659186
vt 0.138341 0.659186
vt 0.138341 0.414264
vt 0.023281 0.414264
vt 0.000000 0.659186
vt 0.000000 0.414264
vn 0.000000 0.000000 1.000000
vn 0.000000 0.000000 1.000000
vn 0.000000 0.000000 1.000000
vn 0.000000 0.000000 1.000000
vn 0.000000 0.000000 -1.000000
vn 0.000000 0.000000 -1.000000
vn 0.000000 0.000000 -1.000000
vn 0.000000 0.000000 -1.000000
vn 1.000000 0.000000 0.000000
vn 1.000000 0.000000 0.000000
vn 1.000000 0.000000 0.000000
vn 1.000000 0.000000 0.000000
vn -1.000000 0.000000 0.000000
vn -1.000000 0.000000 0.000000
vn -1.000000 0.000000 0.000000
vn -1.000000 0.000000 0.000000
vn 0.000000 -1.000000 0.000000
vn 0.000000 -1.000000 0.000000
vn 0.000000 -1.000000 0.000000
vn 0.000000 -1.000000 0.000000
vn 0.000000 -1.000000 0.000000
vn 0.000000 -1.000000 0.000000
vn 0.000000 -1.000000 0.000000
vn 0.000000 -1.000000 0.000000
vn -0.707107 0.000000 0.707106
vn -0.707107 0.000000 0.707106
vn -0.707107 0.000000 0.707106
vn -0.707107 0.000000 0.707106
vn 0.707107 0.000000 0.707106
vn 0.707107 0.000000 0.707106
vn 0.707107 0.000000 0.707106
vn 0.707107 0.000000 0.707106
vn -0.707107 0.000000 -0.707106
vn -0.707107 0.000000 -0.707106
vn -0.707107 0.000000 -0.707106
vn -0.707107 0.000000 -0.707106
vn 0.707107 0.000000 -0.707106
vn 0.707107 0.000000 -0.707106
vn 0.707107 0.000000 -0.707106
vn 0.707107 0.000000 -0.707106
s off
g pCube2 pCube1
usemtl lambert2SG
f 28/57/77 26/55/78 30/54/79 32/58/80
f 36/71/81 34/72/82 37/70/83 40/61/84
f 31/62/85 29/63/86 39/64/87 38/65/88
f 33/66/89 35/67/90 25/68/91 27/69/92
f 35/49/93 36/50/94 40/51/95 39/52/96 29/53/97 30/54/98 26/55/99 25/56/100
f 25/68/101 26/55/102 28/57/103 27/69/104
f 30/54/105 29/63/106 31/62/107 32/58/108
f 33/66/109 34/60/110 36/59/111 35/67/112
f 37/70/113 38/65/114 39/64/115 40/61/116
